Coordinates
version=1
nRows=18
nColumns=63
inDegrees=yes

Units are S.I. units (second, meters, Newtons, ...)
If the header above contains a line with 'inDegrees', this indicates whether rotational values are in degrees (yes) or radians (no).

endheader
time	pelvis_tilt	pelvis_list	pelvis_rotation	pelvis_tx	pelvis_ty	pelvis_tz	hip_flexion_r	hip_adduction_r	hip_rotation_r	knee_angle_r	knee_angle_r_beta	ankle_angle_r	subtalar_angle_r	mtp_angle_r	hip_flexion_l	hip_adduction_l	hip_rotation_l	knee_angle_l	knee_angle_l_beta	ankle_angle_l	subtalar_angle_l	mtp_angle_l	L5_S1_Flex_Ext	L5_S1_Lat_Bending	L5_S1_axial_rotation	L4_L5_Flex_Ext	L4_L5_Lat_Bending	L4_L5_axial_rotation	L3_L4_Flex_Ext	L3_L4_Lat_Bending	L3_L4_axial_rotation	L2_L3_Flex_Ext	L2_L3_Lat_Bending	L2_L3_axial_rotation	L1_L2_Flex_Ext	L1_L2_Lat_Bending	L1_L2_axial_rotation	L1_T12_Flex_Ext	L1_T12_Lat_Bending	L1_T12_axial_rotation	Abs_r3	Abs_r2	Abs_r1	Abs_t1	Abs_t2	neck_flexion	neck_bending	neck_rotation	arm_flex_r	arm_add_r	arm_rot_r	elbow_flex_r	pro_sup_r	wrist_flex_r	wrist_dev_r	arm_flex_l	arm_add_l	arm_rot_l	elbow_flex_l	pro_sup_l	wrist_flex_l	wrist_dev_l
0.000000	-2.528226	-5.622115	96.082310	0.260384	0.534479	1.076797	-0.605892	-2.074272	-12.280058	10.442353	0.182253	26.896417	15.343217	0.000000	-0.351274	1.686922	-0.486772	0.599139	0.010457	23.513636	-3.775271	0.000000	-0.013037	-0.119190	0.373356	-0.024212	-0.158523	0.396690	-0.021419	-0.289799	0.396690	-0.014900	-0.289799	0.326686	-0.012107	-0.243053	0.303351	-0.007450	-0.184626	0.280017	-0.093125	-1.348304	2.076492	0.000000	0.000000	20.884530	5.654738	6.438061	16.729112	-15.329546	87.189207	48.717416	89.407280	-36.181252	-14.671307	14.467031	-15.795885	72.344677	54.060336	82.887683	2.732531	-4.919818
0.016949	-2.747334	-5.591367	95.883278	0.260810	0.534944	1.076425	-0.500638	-2.356997	-12.806111	10.666705	0.186169	26.590346	15.975690	0.000000	-0.255540	1.872345	-0.410818	0.932854	0.016281	23.646332	-4.665890	0.000000	0.011693	-0.150555	0.500348	0.021714	-0.200238	0.531620	0.019210	-0.366058	0.531620	0.013363	-0.366058	0.437804	0.010858	-0.307011	0.406533	0.006681	-0.233209	0.375261	0.083519	-1.703104	2.782784	0.000000	0.000000	20.336563	5.661313	5.498809	16.062857	-15.531644	85.436482	49.400294	89.346634	-33.567339	-12.147863	15.384398	-15.494598	75.081369	53.025214	78.877054	4.534510	-4.728075
0.033898	-2.914059	-5.570011	95.658672	0.261159	0.535310	1.076248	-0.371867	-2.581536	-13.169810	10.880610	0.189902	26.333773	16.484578	0.000000	-0.146944	2.017694	-0.383376	1.270044	0.022166	23.750525	-5.459923	0.000000	0.031132	-0.173599	0.603973	0.057815	-0.230886	0.641721	0.051147	-0.422088	0.641721	0.035581	-0.422088	0.528476	0.028909	-0.354002	0.490728	0.017789	-0.268904	0.452980	0.222373	-1.963783	3.359116	0.000000	0.000000	19.869731	5.637173	4.771123	15.489194	-15.711385	83.830814	49.991538	89.294672	-31.294904	-10.059007	16.005746	-15.260572	77.011775	52.236213	75.279595	5.914245	-4.487778
0.050847	-3.034117	-5.556971	95.412914	0.261440	0.535588	1.076246	-0.223544	-2.753945	-13.387729	11.083730	0.193448	26.123818	16.880798	0.000000	-0.028126	2.127405	-0.398467	1.607314	0.028053	23.828402	-6.165830	0.000000	0.045754	-0.189245	0.686244	0.084969	-0.251696	0.729135	0.075169	-0.460130	0.729135	0.052292	-0.460130	0.600464	0.042487	-0.385908	0.557574	0.026144	-0.293141	0.514683	0.326815	-2.140777	3.816685	0.000000	0.000000	19.477849	5.586317	4.234725	15.003400	-15.869478	82.370719	50.497344	89.250780	-29.341450	-8.368442	16.360289	-15.087802	78.214991	51.670395	72.073237	6.913086	-4.206391
0.067797	-3.113225	-5.551170	95.150428	0.261660	0.535785	1.076396	-0.059632	-2.880282	-13.476442	11.275725	0.196799	25.957604	17.175267	0.000000	0.098277	2.205908	-0.450111	1.941272	0.033882	23.882153	-6.792068	0.000000	0.056031	-0.198416	0.749175	0.104055	-0.263894	0.795999	0.092053	-0.482429	0.795999	0.064037	-0.482429	0.655528	0.052030	-0.404611	0.608705	0.032016	-0.307347	0.561882	0.400221	-2.244525	4.166688	0.000000	0.000000	19.154732	5.512746	3.869339	14.600755	-16.006637	81.054710	50.923909	89.214342	-27.684479	-7.039870	16.477240	-14.970286	78.770116	51.304822	69.235909	7.572382	-3.891372
0.084746	-3.157097	-5.551533	94.875639	0.261826	0.535910	1.076679	0.115905	-2.966605	-13.452521	11.456259	0.199949	25.832251	17.378904	0.000000	0.229625	2.257639	-0.532327	2.268522	0.039593	23.913966	-7.347096	0.000000	0.062435	-0.202035	0.794779	0.115949	-0.268707	0.844453	0.102575	-0.491229	0.844453	0.071357	-0.491229	0.695432	0.057978	-0.411990	0.645758	0.035676	-0.312953	0.596084	0.445970	-2.285463	4.420323	0.000000	0.000000	18.894196	5.420459	3.654687	14.276539	-16.123572	79.881300	51.277430	89.184744	-26.301494	-6.036995	16.385812	-14.902018	78.756247	51.116555	66.745545	7.933481	-3.550183
0.101695	-3.171450	-5.556981	94.592970	0.261946	0.535972	1.077071	0.299105	-3.018970	-13.332542	11.624992	0.202894	25.744881	17.502625	0.000000	0.363282	2.287030	-0.639135	2.585672	0.045128	23.926031	-7.839372	0.000000	0.065441	-0.201024	0.825069	0.121530	-0.267363	0.876636	0.107513	-0.488771	0.876636	0.074792	-0.488771	0.721935	0.060768	-0.409929	0.670368	0.037393	-0.311387	0.618802	0.467437	-2.274029	4.588785	0.000000	0.000000	18.690055	5.313456	3.570493	14.026031	-16.220996	78.849005	51.564102	89.161372	-25.169997	-5.323520	16.115218	-14.876996	78.252481	51.082658	64.580075	8.037733	-3.190283
0.118644	-3.161999	-5.566440	94.306843	0.262027	0.535980	1.077553	0.486004	-3.043436	-13.133077	11.781587	0.205627	25.692616	17.557347	0.000000	0.496608	2.298515	-0.764555	2.889326	0.050428	23.920536	-8.277354	0.000000	0.065520	-0.196307	0.842058	0.121676	-0.261088	0.894687	0.107642	-0.477300	0.894687	0.074882	-0.477300	0.736801	0.060841	-0.400308	0.684172	0.037438	-0.304079	0.631543	0.468000	-2.220660	4.683274	0.000000	0.000000	18.536125	5.195736	3.596480	13.844510	-16.299619	77.956337	51.790122	89.143610	-24.267489	-4.863148	15.694672	-14.889216	77.337916	51.180192	62.717430	7.926487	-2.819134
0.135593	-3.134460	-5.578833	94.021684	0.262078	0.535942	1.078103	0.672638	-3.046060	-12.870700	11.925705	0.208143	25.672575	17.553989	0.000000	0.626965	2.296525	-0.902607	3.176092	0.055433	23.899670	-8.669500	0.000000	0.063145	-0.188804	0.847760	0.117266	-0.251110	0.900745	0.103740	-0.459059	0.900745	0.072168	-0.459059	0.741790	0.058636	-0.385010	0.688805	0.036081	-0.292458	0.635820	0.451035	-2.135793	4.714985	0.000000	0.000000	18.426221	5.071301	3.712371	13.727256	-16.360155	77.201811	51.961688	89.130845	-23.571474	-4.619582	15.153388	-14.932674	76.091649	51.386221	61.135541	7.641090	-2.444196
0.152542	-3.094549	-5.593084	93.741916	0.262105	0.535866	1.078700	0.855045	-3.032898	-12.561985	12.057008	0.210434	25.681881	17.503468	0.000000	0.751715	2.285496	-1.047311	3.442575	0.060084	23.865623	-9.024270	0.000000	0.058789	-0.179440	0.844187	0.109176	-0.238656	0.896949	0.096584	-0.436291	0.896949	0.067189	-0.436291	0.738664	0.054591	-0.365915	0.685902	0.033592	-0.277953	0.633140	0.419920	-2.029866	4.695117	0.000000	0.000000	18.354158	4.944149	3.897889	13.669549	-16.403313	76.583941	52.084994	89.122461	-23.059454	-4.556525	14.520577	-15.001367	74.592778	51.677805	59.812341	7.222894	-2.072930
0.169492	-3.047980	-5.608116	93.471962	0.262116	0.535762	1.079322	1.029260	-3.010009	-12.223505	12.175158	0.212497	25.717655	17.416700	0.000000	0.868221	2.269860	-1.192687	3.685381	0.064322	23.820582	-9.350121	0.000000	0.052924	-0.169137	0.833354	0.098286	-0.224953	0.885439	0.086949	-0.411240	0.885439	0.060487	-0.411240	0.729185	0.049145	-0.344905	0.677100	0.030241	-0.261994	0.625016	0.378033	-1.913315	4.634866	0.000000	0.000000	18.313752	4.818280	4.132757	13.666667	-16.429807	76.101241	52.166239	89.117845	-22.708931	-4.637679	13.825455	-15.089290	72.920400	52.032007	58.725759	6.713245	-1.712796
0.186441	-3.027217	-5.629221	93.222822	0.262171	0.535611	1.079912	1.191465	-3.014134	-11.936267	12.295896	0.214604	25.746261	17.308313	0.000000	0.976871	2.279939	-1.342977	3.898102	0.068035	23.765592	-9.611359	0.000000	0.045747	-0.162784	0.825410	0.084956	-0.216503	0.876998	0.075157	-0.395794	0.876998	0.052284	-0.395794	0.722234	0.042480	-0.331950	0.670646	0.026140	-0.252153	0.619058	0.326763	-1.841448	4.590685	0.000000	0.000000	18.357426	4.739791	4.384616	13.737789	-16.388297	75.935924	52.050177	89.124061	-22.939765	-5.199521	13.145213	-15.204634	71.293724	52.455443	58.226993	6.074431	-1.404673
0.203390	-3.009391	-5.645795	92.998454	0.262200	0.535447	1.080458	1.327660	-3.019152	-11.649790	12.390825	0.216261	25.815391	17.206305	0.000000	1.063380	2.294645	-1.361036	4.065720	0.070960	23.672558	-10.082940	0.000000	0.039401	-0.157219	0.811846	0.073172	-0.209102	0.862586	0.064733	-0.382263	0.862586	0.045032	-0.382263	0.710365	0.036588	-0.320602	0.659625	0.022514	-0.243533	0.608884	0.281440	-1.778497	4.515243	0.000000	0.000000	18.388574	4.658156	4.611291	13.900921	-16.375542	75.940141	52.037561	89.134773	-22.966747	-5.514210	12.422881	-15.302971	69.517908	52.838870	58.085360	5.712248	-1.084346
0.220339	-3.004282	-5.653402	92.810344	0.262210	0.535293	1.080950	1.430891	-3.034758	-11.388187	12.462465	0.217511	25.919833	17.114583	0.000000	1.120613	2.316589	-1.389187	4.185731	0.073055	23.593841	-10.519326	0.000000	0.033524	-0.153573	0.793738	0.062258	-0.204252	0.843346	0.055077	-0.373398	0.843346	0.038315	-0.373398	0.694521	0.031130	-0.313167	0.644912	0.019156	-0.237885	0.595303	0.239459	-1.737252	4.414532	0.000000	0.000000	18.395781	4.585696	4.827562	14.132612	-16.369730	76.115397	52.070154	89.145385	-22.959361	-5.673985	11.768415	-15.401282	67.980904	53.183475	57.367497	5.426898	-0.731773
0.237288	-3.013987	-5.647164	92.642748	0.262226	0.535177	1.081390	1.500684	-3.063566	-11.146393	12.514174	0.218414	26.048558	17.041466	0.000000	1.148260	2.348844	-1.489311	4.268250	0.074495	23.533789	-10.849906	0.000000	0.027227	-0.152257	0.777090	0.050563	-0.202502	0.825658	0.044731	-0.370198	0.825658	0.031118	-0.370198	0.679954	0.025283	-0.310482	0.631386	0.015557	-0.235846	0.582817	0.194478	-1.722362	4.321941	0.000000	0.000000	18.378691	4.484593	4.959449	14.385020	-16.362079	76.361962	52.122818	89.151413	-22.883631	-5.689376	11.213140	-15.480233	66.731849	53.458758	56.294779	5.223080	-0.432767
0.254237	-3.033059	-5.639471	92.497140	0.262271	0.535089	1.081760	1.551120	-3.096811	-10.923340	12.546757	0.218982	26.190347	16.972864	0.000000	1.161864	2.383413	-1.692909	4.319584	0.075391	23.508516	-11.000816	0.000000	0.022479	-0.152856	0.764474	0.041745	-0.203299	0.812254	0.036930	-0.371655	0.812254	0.025691	-0.371655	0.668915	0.020874	-0.311704	0.621135	0.012844	-0.236774	0.573356	0.160563	-1.729140	4.251776	0.000000	0.000000	18.340730	4.412887	5.074526	14.585926	-16.353587	76.550870	52.198858	89.151200	-22.783332	-5.577931	10.760792	-15.544450	65.758698	53.674285	55.113975	5.079328	-0.202073
0.271186	-3.057834	-5.628324	92.393199	0.262322	0.535041	1.082057	1.578468	-3.129451	-10.742073	12.562363	0.219255	26.340173	16.907265	0.000000	1.159501	2.423425	-1.672948	4.336061	0.075679	23.416435	-11.399667	0.000000	0.018917	-0.155260	0.751123	0.035131	-0.206496	0.798068	0.031079	-0.377499	0.798068	0.021620	-0.377499	0.657233	0.017566	-0.316606	0.610288	0.010809	-0.240498	0.563342	0.135121	-1.756331	4.177522	0.000000	0.000000	18.284247	4.357451	5.144540	14.705051	-16.329193	76.602843	52.279730	89.139511	-22.601842	-5.380111	10.392085	-15.600964	64.976800	53.836463	54.230196	4.938347	-0.089869
0.288136	-3.091261	-5.618136	92.320841	0.262403	0.535031	1.082283	1.590940	-3.165980	-10.606257	12.566012	0.219318	26.496512	16.862675	0.000000	1.151849	2.467932	-1.605002	4.332655	0.075619	23.317144	-11.782899	0.000000	0.016817	-0.159993	0.741364	0.031232	-0.212790	0.787699	0.027629	-0.389006	0.787699	0.019221	-0.389006	0.648693	0.015617	-0.326257	0.602358	0.009610	-0.247829	0.556023	0.120126	-1.809869	4.123242	0.000000	0.000000	18.213621	4.324518	5.165780	14.696331	-16.283323	76.407778	52.351864	89.116651	-22.320497	-5.141785	10.103379	-15.646959	64.341349	53.959162	53.977183	4.769354	-0.114703
